<?xml version="1.0" encoding="UTF-8"?>
<svg id="Layer_1" xmlns="http://www.w3.org/2000/svg" version="1.1" viewBox="235 420 140 140">
  <!-- Cropped to show only the thread/spool icon, fills the entire tile -->
  <g>
    <path d="M283.48,517.74c-1.67,1.08-4.19-.78-4.62-1.82-.56-1.35-.66-4.32.47-5.09l6.11-4.18-7.07,1.14c-3.91-2.78,28.61-19.32,30.83-23.55l-34.59,20.77c-2.23,1.34-5.51-4.01-3.94-6.55,4.78-3.15,61.95-37.04,61.67-32.05-.25,4.33-6.14,4.23-9.47,9.13,4.79-2.08,7.95-4,12.87-6.7,1.33-.73,3.79,1.85,4.36,3.85.52,1.84-1.52,3.48-3.93,5.53-1.73.96-.82,1.02,1.23.59l2.79.6c.6.13-.32,2.03-1.21,2.6l-55.49,35.74Z"/>
    <path d="M271.37,486.35c-3-.72-4.23-4.83-3.53-7.51l37.44-26.97c1.67-1.2,4.69-1.89,6.04-1.12,1.9,1.08,3.57,3.95,3.25,6.47l-43.19,29.14Z"/>
    <path d="M318.42,515.86c-9.58,6.57-18.21,12.06-27.51,17.74-2.43-.33-4.66-4.2-4.07-6.79l24.37-15.42c-2.9-1.49-30.27,18.17-26.04,8.57l56.89-36.47c.88-.56,3.69.88,4.21,1.76,4.45,7.52-12.32,9.58-16.8,15.82,5.41-.65,13.68-7.94,18.39-7.94.58,0,.42,2.26-.33,2.78l-29.1,19.95Z"/>
    <path d="M270.59,494.55c-.76.38-2.89-1.84-1.98-2.42l57.75-37.02c2.16-1.28,5.86,5.57,4.02,6.74-19.48,12.36-39.16,22.45-59.79,32.69Z"/>
    <path d="M306.98,535.53c-.99.64-4.4.48-5.2-.22-.93-.82-1.86-2.87-1.92-4.29,2.39-1.91,5.43-4.51,7.91-6.06l37.91-23.72c1.24,2.87,1.41,5.95.74,8.71l-39.45,25.59Z"/>
    <path d="M289.89,457.12l-7.11,3.6c-2.66-4.54-16.95-22.54-11.52-27.39,2.91,1.19,6.18,3.79,7.72,6.26l10.91,17.52ZM280.63,451.07c.58-5.6-2.79-10.57-7.42-13.62-.51,5.54,2.36,10.4,7.42,13.62Z"/>
    <path d="M339.71,544.12l-9.8-13.52c-.54-.75.12-3.24.65-3.46,3.59,6.07,6.47,11.07,9.15,16.98Z"/>
    <path style="fill:#fff" d="M280.63,451.07c-5.06-3.23-7.93-8.08-7.42-13.62,4.62,3.06,8,8.03,7.42,13.62Z"/>
  </g>
</svg>
